<svg width="22" height="22" viewBox="0 0 22 22" fill="none" xmlns="http://www.w3.org/2000/svg">
<path fill-rule="evenodd" clip-rule="evenodd" d="M7.88732 5.68048C8.1367 5.46567 8.20473 5.10711 8.05134 4.81589L5.82778 0.72735C5.65811 0.40489 5.27105 0.264342 4.93401 0.402811L0.758824 2.00356C0.486426 2.11347 0.31114 2.38123 0.319363 2.67485C0.381795 4.69867 0.891115 9.70012 5.38251 14.9116C9.8739 20.123 14.7448 21.3642 16.7383 21.7247C17.0275 21.7761 17.3182 21.6422 17.4671 21.389L19.6663 17.4957C19.8523 17.1835 19.7711 16.781 19.4785 16.5654L15.7627 13.7636C15.4975 13.5688 15.1328 13.5829 14.8834 13.7976L13.1887 15.2589C13.0238 15.4021 12.8016 15.4604 12.5876 15.4166C11.8135 15.2593 9.89582 14.6742 8.09012 12.5792C6.28442 10.4842 5.98871 8.50113 5.94732 7.71235C5.93558 7.49423 6.02601 7.28306 6.19197 7.14103L7.88732 5.68048ZM5.54039 6.38245C5.13933 6.72641 4.92072 7.23712 4.94869 7.76475C4.99858 8.7155 5.3477 10.9291 7.33265 13.2321C9.3176 15.5351 11.4554 16.2069 12.3884 16.3966C12.9061 16.5021 13.4433 16.3612 13.8427 16.0154C13.8432 16.015 13.8437 16.0145 13.8442 16.0141L15.3567 14.7099L18.6772 17.2136L16.707 20.7014C14.7302 20.317 10.2792 19.0615 6.14 14.2587C2.00092 9.45607 1.41551 4.86786 1.32685 2.85676L5.06757 1.42258L7.05524 5.07739L5.54176 6.38127C5.54131 6.38167 5.54085 6.38206 5.54039 6.38245Z" fill="#A0148E"/>
<path fill-rule="evenodd" clip-rule="evenodd" d="M12.9303 1.28559C12.9305 1.28561 12.9306 1.28563 12.9926 0.789488C13.0547 0.293349 13.0548 0.293372 13.055 0.293396L13.0567 0.293609L13.0602 0.294062L13.0716 0.295575L13.111 0.301191C13.1446 0.306148 13.1926 0.313618 13.2534 0.324102C13.3749 0.345062 13.5482 0.378116 13.7613 0.427293C14.1869 0.525506 14.7747 0.688801 15.4283 0.95025C16.7286 1.47033 18.3312 2.39586 19.4087 4.01214C20.4629 5.5935 20.858 7.1747 20.9896 8.35927C21.0554 8.95178 21.0556 9.44725 21.039 9.79765C21.0306 9.97297 21.018 10.1124 21.0072 10.2099C21.0017 10.2587 20.9968 10.2971 20.993 10.3243L20.9882 10.3566L20.9867 10.3663L20.9862 10.3696L20.986 10.3708C20.986 10.371 20.9858 10.3717 20.4926 10.2895C19.9995 10.2073 19.9994 10.2075 19.9994 10.2076L19.9998 10.205L20.0026 10.1858C20.0051 10.1676 20.0089 10.1386 20.0133 10.0995C20.022 10.0213 20.0328 9.90288 20.0401 9.75008C20.0547 9.44422 20.0549 9.0022 19.9957 8.4697C19.8773 7.40428 19.5224 5.98548 18.5766 4.56684C17.6541 3.18312 16.2567 2.35864 15.057 1.87873C14.4606 1.64018 13.9234 1.49097 13.5365 1.40168C13.3433 1.35711 13.1885 1.32766 13.0835 1.30956C13.031 1.30051 12.9911 1.29431 12.9651 1.29048L12.9368 1.28645L12.9303 1.28559ZM12.4699 4.28593C12.47 4.28595 12.4702 4.28597 12.5294 3.78949C12.5886 3.29301 12.5888 3.29303 12.589 3.29305L12.5904 3.29322L12.5931 3.29355L12.6014 3.29461L12.6292 3.29838C12.6525 3.30167 12.6854 3.30657 12.7269 3.31339C12.8098 3.32703 12.9272 3.34842 13.0712 3.38014C13.3586 3.44343 13.7553 3.5486 14.1967 3.7171C15.071 4.05088 16.1677 4.65123 16.9099 5.71369C17.629 6.74317 17.8992 7.77403 17.9893 8.54746C18.0343 8.93412 18.0346 9.25817 18.023 9.48875C18.0173 9.60416 18.0086 9.69658 18.0009 9.76219C17.9971 9.79501 17.9935 9.82118 17.9908 9.84021L17.9872 9.86336L17.986 9.87083L17.9855 9.87352L17.9853 9.8746C17.9853 9.87482 17.9852 9.8755 17.4926 9.78949C17.0001 9.70347 17.0001 9.70367 17 9.70386L17.0013 9.69529C17.0027 9.68564 17.005 9.66924 17.0076 9.64655C17.0129 9.60115 17.0197 9.53073 17.0243 9.43891C17.0335 9.25501 17.0337 8.98696 16.996 8.6631C16.9206 8.01547 16.6945 7.15159 16.0901 6.28634C15.5087 5.45406 14.6201 4.94914 13.8401 4.65134C13.4542 4.50406 13.1064 4.41186 12.8562 4.35673C12.7313 4.32924 12.6316 4.31115 12.5646 4.30012C12.5311 4.29461 12.5058 4.29087 12.4897 4.28861L12.4727 4.28629L12.4699 4.28593Z" fill="#A0148E"/>
</svg>
