<svg width="25" height="25" viewBox="0 0 25 25" fill="none" xmlns="http://www.w3.org/2000/svg">
<path d="M23.4802 2.73666e-08H1.95644C1.21944 0.000443026 0.621984 0.598194 0.622131 1.33549V22.8592C0.622574 23.5962 1.22033 24.1937 1.95762 24.1936H13.5458V14.8375H10.4035V11.1753H13.5458V8.48029C13.5458 5.35495 15.4538 3.65384 18.2418 3.65384C19.5771 3.65384 20.7246 3.75337 21.0591 3.79781V7.06433H19.1366C17.6198 7.06433 17.3261 7.78508 17.3261 8.84296V11.1753H20.9527L20.4802 14.8375H17.3261V24.1936H23.4802C24.2176 24.1937 24.8155 23.5961 24.8157 22.8587C24.8157 22.8585 24.8157 22.8584 24.8157 22.8581V1.33431C24.8154 0.597308 24.2175 -0.000147638 23.4802 2.73666e-08Z" fill="#2D0027"/>
</svg>
