<svg width="25" height="25" viewBox="0 0 25 25" fill="none" xmlns="http://www.w3.org/2000/svg">
<path d="M20.6726 0H3.56705C1.61306 0 0.0230713 1.58999 0.0230713 3.54398V20.6496C0.0230713 22.6036 1.61306 24.1935 3.56705 24.1935H20.6726C22.6266 24.1935 24.2166 22.6036 24.2166 20.6496V3.54398C24.2166 1.58999 22.6266 0 20.6726 0ZM12.1671 18.4287C8.64952 18.4287 5.78794 15.5671 5.78794 12.0495C5.78794 8.53194 8.64952 5.67036 12.1671 5.67036C15.6847 5.67036 18.5463 8.53194 18.5463 12.0495C18.5463 15.5671 15.6847 18.4287 12.1671 18.4287ZM19.2551 7.08795C18.0826 7.08795 17.1287 6.13403 17.1287 4.96157C17.1287 3.7891 18.0826 2.83518 19.2551 2.83518C20.4275 2.83518 21.3814 3.7891 21.3814 4.96157C21.3814 6.13403 20.4275 7.08795 19.2551 7.08795Z" fill="#2D0027"/>
<path d="M19.2551 4.25293C18.8639 4.25293 18.5463 4.5706 18.5463 4.96173C18.5463 5.35285 18.8639 5.67052 19.2551 5.67052C19.6462 5.67052 19.9639 5.35285 19.9639 4.96173C19.9639 4.5706 19.6462 4.25293 19.2551 4.25293Z" fill="#2D0027"/>
<path d="M12.1671 7.08789C9.43163 7.08789 7.20557 9.31395 7.20557 12.0495C7.20557 14.785 9.43163 17.011 12.1671 17.011C14.9026 17.011 17.1287 14.785 17.1287 12.0495C17.1287 9.31395 14.9026 7.08789 12.1671 7.08789Z" fill="#2D0027"/>
</svg>
