<svg width="31" height="18" viewBox="0 0 31 18" fill="none" xmlns="http://www.w3.org/2000/svg">
<path d="M30.1437 15.8697C30.0619 15.7334 29.5562 14.6392 27.1229 12.3902C24.5754 10.0352 24.9176 10.4176 27.9859 6.3456C29.8547 3.86566 30.6018 2.35119 30.368 1.70376C30.1456 1.08661 28.7711 1.24942 28.7711 1.24942L24.2009 1.27592C24.2009 1.27592 23.8625 1.23049 23.6097 1.38004C23.3645 1.5277 23.2067 1.86846 23.2067 1.86846C23.2067 1.86846 22.4824 3.78804 21.5166 5.41988C19.4806 8.86341 18.665 9.04514 18.3324 8.83122C17.5586 8.33334 17.7525 6.82834 17.7525 5.76064C17.7525 2.42313 18.2601 1.03171 16.7621 0.672027C16.264 0.552762 15.899 0.473253 14.6272 0.460001C12.9961 0.442963 11.614 0.46568 10.8327 0.846191C10.3118 1.09986 9.91066 1.6659 10.1559 1.69808C10.4582 1.73783 11.1425 1.88171 11.5056 2.37391C11.9752 3.00809 11.9581 4.43548 11.9581 4.43548C11.9581 4.43548 12.2281 8.36363 11.3288 8.85205C10.711 9.18712 9.86503 8.50372 8.04952 5.37824C7.1199 3.77858 6.41651 2.00855 6.41651 2.00855C6.41651 2.00855 6.28153 1.67915 6.0401 1.50309C5.74733 1.28917 5.3367 1.22102 5.3367 1.22102L0.990877 1.24752C0.990877 1.24752 0.338813 1.26646 0.0992796 1.54853C-0.113639 1.80031 0.08217 2.31901 0.08217 2.31901C0.08217 2.31901 3.48507 10.2454 7.33662 14.2417C10.8707 17.9048 14.8819 17.6644 14.8819 17.6644H16.6993C16.6993 17.6644 17.2488 17.6038 17.5282 17.3028C17.7868 17.0264 17.7773 16.5077 17.7773 16.5077C17.7773 16.5077 17.7411 14.0789 18.8742 13.7211C19.9901 13.3689 21.4235 16.0685 22.9424 17.1078C24.0907 17.8934 24.9633 17.7212 24.9633 17.7212L29.0258 17.6644C29.0258 17.6644 31.1512 17.5337 30.1437 15.8697Z" fill="#2D0027"/>
</svg>
