<svg width="90" height="19" viewBox="0 0 90 19" fill="none" xmlns="http://www.w3.org/2000/svg">
<path fill-rule="evenodd" clip-rule="evenodd" d="M0 0L3.8 2.01735V15.1935H19V19H0V0Z" fill="#A0148E"/>
<path fill-rule="evenodd" clip-rule="evenodd" d="M7.46428 11.5357L7.46428 4.07144L9.46941 5.08232L11.5357 4.08998L11.5357 11.5357L7.46428 11.5357Z" fill="#A0148E"/>
<path fill-rule="evenodd" clip-rule="evenodd" d="M15.6071 11.5357L15.6071 1.99333L19 0L19 11.5357L15.6071 11.5357Z" fill="#A0148E"/>
<path d="M34.785 10.4C35.075 10.4 35.22 10.545 35.22 10.835V12.065C35.22 12.355 35.075 12.5 34.785 12.5H28.545C28.255 12.5 28.11 12.355 28.11 12.065V3.065C28.11 2.775 28.255 2.63 28.545 2.63H30.03C30.32 2.63 30.465 2.775 30.465 3.065V10.4H34.785ZM46.4405 2.615C46.7305 2.615 46.8755 2.76 46.8755 3.05V12.065C46.8755 12.355 46.7305 12.5 46.4405 12.5H45.0005C44.7105 12.5 44.5655 12.355 44.5655 12.065V6.98L43.0655 9.605C42.9355 9.815 42.7905 9.92 42.6305 9.92H41.8805C41.7305 9.92 41.5905 9.815 41.4605 9.605L39.9455 6.98V12.065C39.9455 12.355 39.8005 12.5 39.5105 12.5H38.0255C37.7355 12.5 37.5905 12.355 37.5905 12.065V3.05C37.5905 2.76 37.7355 2.615 38.0255 2.615H39.5105C39.6305 2.615 39.7305 2.635 39.8105 2.675C39.9005 2.715 39.9605 2.755 39.9905 2.795C40.0305 2.835 40.0705 2.9 40.1105 2.99C40.1605 3.07 40.1905 3.115 40.2005 3.125L42.2555 6.815L44.3255 3.125C44.3355 3.115 44.3555 3.08 44.3855 3.02C44.4155 2.95 44.4405 2.9 44.4605 2.87C44.4905 2.83 44.5255 2.79 44.5655 2.75C44.6155 2.7 44.6755 2.665 44.7455 2.645C44.8255 2.625 44.9105 2.615 45.0005 2.615H46.4405ZM58.3295 12.08C58.4495 12.36 58.3645 12.5 58.0745 12.5H56.4995C56.3295 12.5 56.2045 12.47 56.1245 12.41C56.0545 12.35 55.9895 12.23 55.9295 12.05L55.5095 10.865H51.8345L51.4145 12.05C51.3545 12.23 51.2845 12.35 51.2045 12.41C51.1345 12.47 51.0145 12.5 50.8445 12.5H49.2695C48.9795 12.5 48.8945 12.36 49.0145 12.08L52.3445 3.095C52.4645 2.785 52.6695 2.63 52.9595 2.63H54.3995C54.6795 2.63 54.8845 2.785 55.0145 3.095L58.3295 12.08ZM52.5545 8.765H54.8045L53.6795 5.45L52.5545 8.765ZM68.5036 12.02C68.5736 12.12 68.5886 12.225 68.5486 12.335C68.5086 12.445 68.4186 12.5 68.2786 12.5H66.5086C66.2086 12.5 65.9586 12.35 65.7586 12.05L64.1386 9.635C64.0286 9.485 63.9736 9.23 63.9736 8.87V7.67C63.9736 7.38 64.1186 7.235 64.4086 7.235H64.7086C65.0886 7.235 65.4186 7.12 65.6986 6.89C65.9886 6.65 66.1336 6.36 66.1336 6.02C66.1336 5.64 66.0036 5.335 65.7436 5.105C65.4836 4.865 65.1536 4.745 64.7536 4.745H62.7586V12.065C62.7586 12.355 62.6136 12.5 62.3236 12.5H60.8386C60.5586 12.5 60.4186 12.355 60.4186 12.065V3.08C60.4186 2.79 60.5586 2.645 60.8386 2.645H64.6186C65.3986 2.645 66.0036 2.72 66.4336 2.87C66.8736 3.02 67.2636 3.265 67.6036 3.605C68.1836 4.165 68.4736 4.95 68.4736 5.96C68.4736 6.69 68.2586 7.325 67.8286 7.865C67.3986 8.405 66.9186 8.765 66.3886 8.945L68.5036 12.02ZM79.3788 2.63C79.5088 2.63 79.5838 2.685 79.6038 2.795C79.6338 2.895 79.6088 2.98 79.5288 3.05L76.1538 6.71L79.3788 12.02C79.4488 12.12 79.4588 12.225 79.4088 12.335C79.3688 12.445 79.2838 12.5 79.1538 12.5H77.3238C77.0238 12.5 76.7738 12.34 76.5738 12.02C75.6838 10.52 74.9688 9.32 74.4288 8.42L73.4988 9.395V12.065C73.4988 12.355 73.3588 12.5 73.0788 12.5H71.5938C71.4438 12.5 71.3338 12.47 71.2638 12.41C71.1938 12.35 71.1588 12.235 71.1588 12.065V3.065C71.1588 2.895 71.1938 2.78 71.2638 2.72C71.3338 2.66 71.4438 2.63 71.5938 2.63H73.0788C73.3588 2.63 73.4988 2.775 73.4988 3.065V6.41L76.6038 2.99C76.7538 2.83 76.8688 2.73 76.9488 2.69C77.0388 2.65 77.1738 2.63 77.3538 2.63H79.3788ZM88.3983 2.63C88.6883 2.63 88.8333 2.775 88.8333 3.065V4.31C88.8333 4.6 88.6883 4.745 88.3983 4.745H86.1033V12.065C86.1033 12.355 85.9583 12.5 85.6683 12.5H84.1833C83.8933 12.5 83.7483 12.355 83.7483 12.065V4.745H81.4383C81.1483 4.745 81.0033 4.6 81.0033 4.31V3.065C81.0033 2.775 81.1483 2.63 81.4383 2.63H88.3983Z" fill="#A0148E"/>
</svg>
